<?xml version="1.0" encoding="utf-8"?>
<!-- Generator: Adobe Illustrator 25.2.1, SVG Export Plug-In . SVG Version: 6.00 Build 0)  -->
<svg version="1.1" id="Layer_1" xmlns="http://www.w3.org/2000/svg" xmlns:xlink="http://www.w3.org/1999/xlink" x="0px" y="0px"
	 viewBox="0 0 179.74 171.57" style="enable-background:new 0 0 179.74 171.57;" xml:space="preserve">
<style type="text/css">
	.st0{filter:url(#Adobe_OpacityMaskFilter);}
	.st1{fill:#FFFFFF;}
	.st2{mask:url(#SVGID_1_);}
	.st3{filter:url(#Adobe_OpacityMaskFilter_1_);}
	.st4{mask:url(#SVGID_2_);}
	.st5{filter:url(#Adobe_OpacityMaskFilter_2_);}
	.st6{mask:url(#SVGID_3_);}
	.st7{filter:url(#Adobe_OpacityMaskFilter_3_);}
	.st8{mask:url(#SVGID_4_);}
	.st9{filter:url(#Adobe_OpacityMaskFilter_4_);}
	.st10{mask:url(#SVGID_5_);}
	.st11{filter:url(#Adobe_OpacityMaskFilter_5_);}
	.st12{mask:url(#SVGID_6_);}
	.st13{filter:url(#Adobe_OpacityMaskFilter_6_);}
	.st14{mask:url(#SVGID_7_);}
	.st15{fill:#E5E5E5;}
	.st16{display:none;}
	.st17{display:inline;fill:#231F20;}
	.st18{fill:none;stroke:#231F20;stroke-miterlimit:10;}
	.st19{display:inline;fill:#006B35;}
	.st20{display:inline;}
	.st21{fill:#231F20;}
	.st22{display:inline;fill:none;stroke:#231F20;stroke-miterlimit:10;}
	.st23{display:none;fill:#231F20;}
	.st24{fill-rule:evenodd;clip-rule:evenodd;fill:#231F20;}
	.st25{fill:#2D2B2B;}
	.st26{clip-path:url(#SVGID_9_);fill:#231F20;}
	.st27{clip-path:url(#SVGID_11_);fill:#231F20;}
	.st28{clip-path:url(#SVGID_13_);fill:#231F20;}
	.st29{clip-path:url(#SVGID_15_);fill:#231F20;}
	.st30{clip-path:url(#SVGID_17_);fill:#231F20;}
	.st31{clip-path:url(#SVGID_19_);fill:#231F20;}
	.st32{clip-path:url(#SVGID_21_);fill:#231F20;}
	.st33{clip-path:url(#SVGID_23_);fill:#231F20;}
	.st34{fill:#6EA6C8;}
	.st35{fill:#CECECE;}
	.st36{fill:url(#SVGID_24_);}
	.st37{fill:url(#SVGID_25_);}
	.st38{fill:url(#SVGID_26_);}
	.st39{fill:url(#SVGID_27_);}
	.st40{fill:#6EA9CB;stroke:#221F1F;stroke-width:0.25;stroke-miterlimit:5;}
	.st41{fill:#221F1F;}
	.st42{fill:#6EA9CB;stroke:#221F1F;stroke-miterlimit:5;}
	.st43{fill:#6EA9CB;}
	.st44{opacity:0.1;}
	.st45{fill:#CB8D38;}
	.st46{opacity:0.2;fill:#E0E0E0;}
	.st47{opacity:0.4;fill:#CB8D38;}
	.st48{fill:#26252B;}
	.st49{fill:#FFFFFF;stroke:#231F20;stroke-miterlimit:10;}
	.st50{display:inline;fill:none;stroke:#FFFFFF;stroke-width:7;stroke-miterlimit:10;}
	.st51{display:inline;fill:#FFFFFF;}
	.st52{display:inline;fill:none;stroke:#000000;stroke-miterlimit:10;}
	.st53{filter:url(#Adobe_OpacityMaskFilter_7_);}
	.st54{mask:url(#SVGID_28_);}
</style>
<g class="st16">
	<path class="st17" d="M81.75,52.23L43.34,72.84l-2.06,1.11l-0.07-0.04l-13.54-7.5c-2.5-1.38-5.98,0-5.98,2.37v47.25
		c0,3.28,4.78,5.22,8.28,3.35l55.57-29.6c3-1.6,4.79-4.23,4.79-7.04V55.69C90.32,52.29,85.37,50.29,81.75,52.23z"/>
	<g class="st20">
		<g>
			<polygon class="st21" points="154.37,99.18 154.65,99.18 154.65,97.08 155.39,97.08 155.39,96.84 153.63,96.84 153.63,97.08 
				154.37,97.08 			"/>
			<path class="st21" d="M155.99,97.69c0-0.23-0.01-0.42-0.02-0.59h0.01l0.8,2.08H157l0.8-2.07h0.01c-0.02,0.2-0.02,0.39-0.02,0.56
				v1.51h0.27v-2.34h-0.41l-0.75,1.93h-0.01l-0.74-1.93h-0.41v2.34h0.25V97.69z"/>
		</g>
		<g>
			<path class="st21" d="M92.23,112.9h-1.92v7.11h1.7c1.21,0,2.13-0.31,2.76-0.92c0.63-0.61,0.94-1.51,0.94-2.71
				c0-1.14-0.3-2-0.89-2.6C94.23,113.2,93.37,112.9,92.23,112.9z M91.99,119.57h-1.18v-6.23h1.31c1,0,1.76,0.26,2.28,0.77
				c0.52,0.51,0.78,1.28,0.78,2.3C95.17,118.52,94.11,119.57,91.99,119.57z"/>
			<polygon class="st21" points="97.34,120.01 101.23,120.01 101.23,119.55 97.84,119.55 97.84,116.5 101.04,116.5 101.04,116.05 
				97.84,116.05 97.84,113.36 101.23,113.36 101.23,112.9 97.34,112.9 			"/>
			<path class="st21" d="M105.09,118.25c-0.19,0.51-0.32,0.89-0.38,1.13c-0.09-0.37-0.28-0.91-0.55-1.64l-1.79-4.84h-0.53l2.65,7.11
				h0.44l2.66-7.11h-0.54L105.09,118.25z"/>
			<polygon class="st21" points="108.59,120.01 112.47,120.01 112.47,119.55 109.08,119.55 109.08,116.5 112.28,116.5 
				112.28,116.05 109.08,116.05 109.08,113.36 112.47,113.36 112.47,112.9 108.59,112.9 			"/>
			<polygon class="st21" points="114.58,112.9 114.08,112.9 114.08,120.01 117.97,120.01 117.97,119.54 114.58,119.54 			"/>
			<path class="st21" d="M122,112.79c-0.99,0-1.76,0.33-2.33,0.98c-0.57,0.65-0.85,1.54-0.85,2.67c0,1.13,0.28,2.03,0.85,2.69
				c0.56,0.66,1.34,0.98,2.33,0.98c0.99,0,1.77-0.33,2.33-0.98c0.56-0.66,0.85-1.55,0.85-2.68c0-1.13-0.28-2.02-0.84-2.68
				C123.77,113.11,122.99,112.79,122,112.79z M123.95,118.81c-0.45,0.55-1.11,0.83-1.96,0.83c-0.85,0-1.5-0.28-1.95-0.83
				c-0.45-0.56-0.68-1.34-0.68-2.36c0-1.01,0.23-1.8,0.69-2.35c0.46-0.55,1.11-0.83,1.96-0.83c0.85,0,1.5,0.27,1.95,0.82
				c0.45,0.55,0.68,1.33,0.68,2.36C124.63,117.47,124.4,118.26,123.95,118.81z"/>
			<path class="st21" d="M128.54,112.9h-1.74v7.11h0.5v-2.94h1.1c0.86,0,1.52-0.18,1.98-0.55c0.47-0.37,0.7-0.89,0.7-1.58
				C131.08,113.58,130.24,112.9,128.54,112.9z M130.01,116.25c-0.36,0.26-0.94,0.4-1.74,0.4h-0.98v-3.3h1.18
				c0.71,0,1.23,0.13,1.57,0.4c0.34,0.26,0.51,0.67,0.51,1.22C130.55,115.55,130.37,115.98,130.01,116.25z"/>
			<path class="st21" d="M135.95,119.15h-0.03l-2.52-6.25h-0.77v7.11h0.48v-5.33c0-0.42-0.01-0.83-0.04-1.24h0.04l2.65,6.56h0.32
				l2.66-6.56h0.04c-0.04,0.4-0.06,0.79-0.06,1.17v5.39h0.5v-7.11h-0.75L135.95,119.15z"/>
			<polygon class="st21" points="141.22,120.01 145.11,120.01 145.11,119.55 141.72,119.55 141.72,116.5 144.92,116.5 
				144.92,116.05 141.72,116.05 141.72,113.36 145.11,113.36 145.11,112.9 141.22,112.9 			"/>
			<path class="st21" d="M151.4,117.54c0,0.53,0.01,1.08,0.04,1.66h-0.03l-4.21-6.3h-0.5v7.11h0.48v-4.61c0-0.38-0.02-0.95-0.06-1.7
				h0.04l4.21,6.31h0.5v-7.11h-0.48V117.54z"/>
			<polygon class="st21" points="152.94,112.9 152.94,113.37 155.25,113.37 155.25,120.01 155.75,120.01 155.75,113.37 
				158.06,113.37 158.06,112.9 			"/>
		</g>
		<g>
			<path class="st21" d="M94.18,107.94c0.46-0.36,0.69-0.86,0.69-1.49c0-0.32-0.06-0.6-0.17-0.84c-0.11-0.24-0.29-0.45-0.53-0.64
				c-0.24-0.19-0.63-0.39-1.15-0.61c-0.46-0.19-0.78-0.35-0.96-0.46c-0.18-0.12-0.31-0.24-0.38-0.37c-0.08-0.13-0.12-0.29-0.12-0.47
				c0-0.27,0.1-0.49,0.29-0.65c0.19-0.16,0.48-0.25,0.86-0.25c0.5,0,1.06,0.13,1.69,0.4l0.37-0.95c-0.67-0.3-1.35-0.45-2.03-0.45
				c-0.71,0-1.28,0.17-1.7,0.51c-0.42,0.34-0.63,0.81-0.63,1.4c0,0.47,0.13,0.88,0.4,1.22c0.27,0.34,0.72,0.64,1.37,0.9
				c0.63,0.25,1.04,0.47,1.24,0.66c0.2,0.18,0.3,0.41,0.3,0.68c0,0.3-0.11,0.53-0.33,0.71c-0.22,0.18-0.56,0.26-1.02,0.26
				c-0.31,0-0.65-0.04-1.02-0.13c-0.36-0.09-0.71-0.21-1.03-0.36v1.1c0.51,0.25,1.17,0.37,1.97,0.37
				C93.09,108.48,93.72,108.3,94.18,107.94z"/>
			<polygon class="st21" points="100.26,107.4 97.4,107.4 97.4,105.17 100.08,105.17 100.08,104.19 97.4,104.19 97.4,102.26 
				100.26,102.26 100.26,101.28 96.24,101.28 96.24,108.38 100.26,108.38 			"/>
			<polygon class="st21" points="105.97,107.39 102.96,107.39 102.96,101.28 101.8,101.28 101.8,108.38 105.97,108.38 			"/>
			<polygon class="st21" points="111.22,107.4 108.36,107.4 108.36,105.17 111.04,105.17 111.04,104.19 108.36,104.19 
				108.36,102.26 111.22,102.26 111.22,101.28 107.2,101.28 107.2,108.38 111.22,108.38 			"/>
			<path class="st21" d="M117.53,108.17v-1c-0.3,0.09-0.6,0.17-0.88,0.23c-0.28,0.06-0.57,0.09-0.88,0.09c-0.7,0-1.23-0.22-1.6-0.67
				c-0.37-0.45-0.55-1.11-0.55-1.98c0-0.83,0.19-1.49,0.57-1.96c0.38-0.47,0.91-0.71,1.58-0.71c0.29,0,0.58,0.04,0.84,0.13
				c0.27,0.09,0.52,0.19,0.76,0.3l0.42-0.97c-0.62-0.3-1.29-0.46-2.01-0.46c-0.69,0-1.29,0.15-1.8,0.44
				c-0.51,0.29-0.9,0.72-1.17,1.27c-0.27,0.55-0.41,1.2-0.41,1.94c0,1.17,0.28,2.08,0.84,2.71c0.56,0.63,1.36,0.95,2.4,0.95
				C116.35,108.48,116.98,108.38,117.53,108.17z"/>
			<polygon class="st21" points="120.36,108.38 121.52,108.38 121.52,102.27 123.61,102.27 123.61,101.28 118.27,101.28 
				118.27,102.27 120.36,102.27 			"/>
		</g>
	</g>
</g>
<g>
	<g>
		<path class="st24" d="M84.98,59.67c-0.63,1.07-0.44,2.41,0.4,3.33c1.98,2.19,4.94,2.68,7.69,2.14c2.65-0.52,5.06-1.92,6.82-3.97
			c0.98-1.14,2.1-2.15,3.33-3.02c1.05-0.55,2.2-0.87,3.38-0.95c-0.03-0.03-0.06-0.05-0.1-0.08c-2.42-1.95-5.61-3.29-8.6-2.48
			c-1.54,0.42-2.49,1.99-3.31,3.35c-1.36,2.27-3.78,3.68-6.43,3.74c-0.68,0.02-1.32-0.28-1.75-0.81c-0.25-0.3-0.27-0.73-0.06-1.06
			c0.21-0.33,0.61-0.48,0.99-0.39c0.5,0.13,1.01,0.15,1.52,0.06c-0.23-0.4-0.61-0.89-1.03-1.06C86.86,58.08,85.62,58.59,84.98,59.67
			z"/>
		<path class="st24" d="M80.43,60.45c-0.13,1.78,0.44,3.53,1.57,4.91c2.23,2.69,5.41,4.44,8.88,4.87c2.9,0.36,5.84-0.07,8.51-1.26
			c1.92-0.85,3.8-1.79,5.63-2.83c1-0.62,2.23-0.72,3.33-0.29c1.09,0.43,1.92,1.35,2.23,2.49c0.05-0.32,0.1-0.64,0.13-0.96
			c0.27-2.43,0.42-5.42-1.9-6.22c-2.86-0.99-5.26,1.21-7.65,3.06c-1.91,1.52-4.19,2.52-6.6,2.91c-3.61,0.63-7.31-0.36-10.14-2.69
			c-1.21-1.12-1.66-2.84-1.18-4.41c0.59-1.69,2.28-2.74,4.06-2.51c-0.42-0.42-0.95-0.94-1.51-1.11c-1.24-0.38-2.42,0.08-3.46,0.85
			C81.3,58.01,80.61,59.17,80.43,60.45z"/>
		<path class="st24" d="M76.08,62.37c-0.01,0.65,0.08,1.29,0.28,1.91c0.91,2.82,2.72,5.26,5.16,6.94c3.02,2.08,6.63,3.13,10.29,2.97
			c3.42-0.14,6.84,0.19,10.17,0.97c1.16,0.14,2.21,0.74,2.94,1.65c0.49,0.8,0.5,1.8,0.03,2.61c2.8-2.97,7.35-8.79-0.22-8.82
			c-2.26,0.07-4.52,0.28-6.76,0.62c-3,0.46-6.06,0.46-9.06,0c-2.61-0.4-5.05-1.56-7.01-3.34c-1.75-1.58-3.09-3.66-3.39-6
			c-0.43-3.32,2.17-6.27,5.5-6.62c-0.24-0.11-0.47-0.3-0.73-0.29C79.33,55.16,76.23,58.43,76.08,62.37z"/>
		<path class="st24" d="M82.57,78.65c2.55,0.54,4.11,0.45,6.13,0.85c1.45,0.28,2.75,1.04,3.71,2.16c1.54,1.71,2.2,4.04,1.77,6.3
			c2.47-1.53,5.29-2.76,6.24-5.11c1.01-2.5-1.56-6.12-4.83-6.56c-2.36-0.32-4.73-0.57-7.11-0.75c-3.54-0.27-6.97-1.33-10.05-3.08
			c-4.76-2.7-6.49-8.72-3.9-13.54c1.23-2.29,3.41-3.92,5.95-4.46c-2.2-0.35-5.35,0.72-6.63,2.06c-1.88,1.97-3.11,3.84-3.6,7.29
			C69.33,70.38,75.95,78.31,82.57,78.65z"/>
		<path class="st24" d="M90.8,89.14c0-0.05,0-0.1,0-0.14c-9.75-3.64-17.59-10.87-21.73-20.07c-0.17,0.15-0.24,0.4-0.17,0.62
			c3.37,9.82,11.24,17.44,21.17,20.48C90.48,89.92,90.77,89.57,90.8,89.14z"/>
	</g>
	<g>
		<path class="st21" d="M108.71,103.64c-0.12,0.07-0.23,0.16-0.36,0.2c-0.67,0.2-1.28,0.09-1.78-0.39
			c-0.53-0.51-0.64-1.13-0.45-1.82c0.26-0.92,0.8-1.57,1.79-1.77c0.45-0.09,0.9-0.18,1.35-0.23c0.52-0.05,0.74,0.14,0.83,0.65
			c0.04,0.21,0.06,0.44,0.06,0.65c-0.03,1.08-0.05,2.16-0.13,3.23c-0.04,0.58-0.34,0.87-0.92,0.91c-0.69,0.06-1.39,0.06-2.09,0.06
			c-2.99,0.01-5.97,0-8.96,0c-0.16,0-0.33,0-0.49-0.01c-0.89-0.06-1.28-0.44-1.31-1.33c-0.03-1.1-0.04-2.2-0.05-3.29
			c-0.01-0.5-0.01-1.01,0-1.51c0-0.13-0.01-0.28,0.05-0.37c0.09-0.14,0.23-0.3,0.38-0.33c0.19-0.04,0.34,0.12,0.35,0.34
			c0.03,0.34,0.07,0.67,0.07,1.01c0.01,1.13,0.01,2.27,0.01,3.4c0,0.09,0,0.18,0,0.27c0.02,1.13,0.22,1.33,1.34,1.34
			c2.3,0.01,4.6,0.01,6.9,0.02c0.78,0,1.56,0.04,2.34,0.06c0.16,0,0.33,0.01,0.49,0c0.89-0.03,1.21-0.46,1.17-1.35
			c-0.03-0.63,0.08-1.27,0.1-1.91c0.01-0.29-0.01-0.59-0.08-0.86c-0.13-0.52-0.49-0.69-1.01-0.55c-0.9,0.25-1.53,1.15-1.43,2.12
			c0.03,0.27,0.11,0.56,0.24,0.81c0.27,0.54,0.64,0.68,1.23,0.54c0.11-0.03,0.23,0,0.35,0C108.69,103.57,108.7,103.6,108.71,103.64z
			"/>
		<path class="st21" d="M88.91,100.25c0.24,0.19,0.45,0.39,0.69,0.55c0.75,0.52,1.34,1.16,1.53,2.09c0.11,0.56,0.07,1.11-0.08,1.66
			c-0.09,0.33-0.43,0.58-0.84,0.59c-0.49,0.02-0.99,0.02-1.48,0.02c-2.7,0-5.41,0-8.11,0c-0.62,0-1.19-0.09-1.72-0.46
			c-0.13-0.09-0.41-0.09-0.57-0.02c-1.19,0.49-2.44,0.55-3.7,0.5c-0.81-0.03-1.61-0.07-2.42-0.1c-0.53-0.02-0.82-0.27-0.91-0.87
			c0.91,0.57,1.9,0.45,2.87,0.45c0.89-0.01,1.78-0.02,2.66-0.06c0.65-0.03,0.91-0.29,0.95-0.94c0.04-0.79,0.04-1.57,0.04-2.36
			c0-0.34,0.1-0.6,0.39-0.81c0.25,0.19,0.4,0.41,0.41,0.75c0.01,0.62,0.03,1.24,0.09,1.86c0.12,1.1,0.61,1.54,1.74,1.55
			c1.41,0.01,2.82,0.01,4.23,0.01c1.57,0,3.13,0.01,4.7,0.01c0.14,0,0.28,0,0.41-0.02c0.31-0.04,0.5-0.21,0.5-0.52
			c0-0.57,0.01-1.16-0.08-1.72c-0.15-0.91-0.65-1.37-1.57-1.51c-0.31-0.05-0.64-0.03-0.96-0.05c-0.16-0.01-0.37,0.01-0.38-0.21
			c-0.01-0.2,0.09-0.37,0.34-0.38c0.06,0,0.13-0.03,0.19-0.03c0.74,0.03,1.29-0.33,1.8-0.83c0.44-0.44,0.94-0.82,1.41-1.23
			c0.22-0.19,0.47-0.18,0.66,0.02c0.21,0.22,0.24,0.52,0.01,0.71c-0.28,0.23-0.59,0.44-0.92,0.59
			C90.19,99.77,89.58,99.99,88.91,100.25z"/>
		<path class="st21" d="M109.98,110.45c-0.09,0.13-0.17,0.27-0.27,0.39c-0.56,0.63-1.14,1.24-1.68,1.88c-0.4,0.47-0.41,0.7-0.05,1.2
			c0.56,0.77,1.15,1.51,1.73,2.27c0.04,0.06,0.11,0.12,0.12,0.18c0.04,0.16,0.05,0.33,0.07,0.5c-0.21,0.02-0.46,0.11-0.62,0.03
			c-0.28-0.14-0.53-0.36-0.74-0.6c-0.4-0.45-0.75-0.95-1.13-1.42c-0.11-0.13-0.23-0.26-0.37-0.36c-0.3-0.21-0.43-0.2-0.63,0.12
			c-0.11,0.19-0.18,0.42-0.21,0.64c-0.04,0.26-0.03,0.53-0.01,0.79c0.02,0.37-0.12,0.63-0.44,0.83c-0.27-0.21-0.45-0.43-0.45-0.81
			c0.01-1.68-0.01-3.36-0.02-5.05c0-0.12,0.02-0.24,0.04-0.35c0.05-0.25,0.22-0.35,0.45-0.35c0.28-0.01,0.47,0.13,0.5,0.37
			c0.02,0.15,0,0.31,0,0.46c-0.02,0.46-0.07,0.91-0.05,1.37c0.01,0.31,0.11,0.62,0.17,0.93c0.03,0.02,0.07,0.03,0.1,0.05
			c0.25-0.18,0.54-0.33,0.75-0.55c0.6-0.63,1.17-1.29,1.76-1.93c0.18-0.19,0.37-0.38,0.58-0.54c0.09-0.07,0.23-0.09,0.35-0.13
			C109.94,110.4,109.96,110.43,109.98,110.45z"/>
		<path class="st21" d="M98.33,116.81c0.01-0.16-0.01-0.29,0.04-0.4c0.74-1.88,1.49-3.76,2.24-5.63c0.14-0.35,0.46-0.44,0.8-0.27
			c0.39,0.2,0.65,0.48,0.8,0.89c0.65,1.67,1.32,3.33,1.97,5c0.1,0.26,0.04,0.47-0.13,0.54c-0.18,0.07-0.62-0.04-0.72-0.22
			c-0.18-0.31-0.39-0.63-0.48-0.97c-0.18-0.67-0.59-1.01-1.25-1.07c-0.3-0.03-0.6-0.06-0.9-0.06c-0.98,0.01-1.57,0.5-1.79,1.45
			C98.81,116.48,98.68,116.65,98.33,116.81z M100.96,111.62c-0.66,0.58-0.88,1.35-1.04,2.14c-0.05,0.22,0.03,0.43,0.29,0.44
			c0.44,0.02,0.89,0.02,1.34-0.03c0.29-0.03,0.41-0.22,0.38-0.51C101.83,112.88,101.58,112.17,100.96,111.62z"/>
		<path class="st21" d="M69.78,116.73c0-0.14-0.04-0.3,0.01-0.43c0.23-0.67,0.47-1.35,0.73-2.01c0.39-1.01,0.79-2.01,1.21-3
			c0.11-0.27,0.31-0.51,0.51-0.73c0.17-0.19,0.42-0.21,0.62-0.04c0.19,0.17,0.4,0.35,0.49,0.57c0.73,1.69,1.43,3.39,2.13,5.08
			c0.05,0.13,0.11,0.31,0.05,0.41c-0.07,0.15-0.23,0.29-0.38,0.35c-0.19,0.07-0.36-0.06-0.44-0.24c-0.12-0.24-0.26-0.49-0.33-0.74
			c-0.27-0.9-0.79-1.32-1.74-1.35c-0.3-0.01-0.6-0.01-0.91,0c-0.49,0.01-0.87,0.23-1.09,0.67c-0.17,0.34-0.31,0.7-0.47,1.05
			c-0.07,0.15-0.17,0.29-0.25,0.43C69.87,116.75,69.82,116.74,69.78,116.73z M72.46,111.5c-0.03,0.01-0.07,0.01-0.1,0.02
			c-0.41,0.66-0.86,1.31-1.05,2.08c-0.1,0.41,0.02,0.59,0.44,0.62c0.33,0.02,0.66,0.02,0.98,0c0.58-0.03,0.74-0.23,0.55-0.77
			C73.04,112.79,72.74,112.15,72.46,111.5z"/>
		<path class="st21" d="M81.7,116.77c0.03-0.23,0.01-0.48,0.09-0.68c0.59-1.54,1.19-3.09,1.81-4.62c0.13-0.32,0.34-0.61,0.54-0.88
			c0.18-0.25,0.36-0.29,0.61-0.09c0.2,0.15,0.41,0.34,0.5,0.57c0.74,1.8,1.45,3.61,2.17,5.42c0.09,0.24-0.11,0.46-0.36,0.41
			c-0.25-0.05-0.47-0.16-0.58-0.41c-0.15-0.34-0.32-0.68-0.45-1.03c-0.19-0.53-0.57-0.78-1.11-0.84c-0.15-0.02-0.29-0.03-0.44-0.04
			c-1.27-0.1-2.03,0.44-2.38,1.67c-0.06,0.2-0.18,0.39-0.27,0.58C81.79,116.8,81.75,116.79,81.7,116.77z M84.33,111.5
			c-0.03,0.01-0.07,0.01-0.1,0.02c-0.12,0.23-0.26,0.45-0.37,0.69c-0.2,0.45-0.41,0.9-0.57,1.36c-0.14,0.39-0.01,0.58,0.4,0.62
			c0.36,0.03,0.73,0.04,1.09,0c0.46-0.05,0.61-0.26,0.44-0.69C84.95,112.82,84.63,112.17,84.33,111.5z"/>
		<path class="st21" d="M97.13,111.67c-0.23-0.12-0.49-0.21-0.7-0.37c-0.71-0.55-1.48-0.83-2.38-0.55c-0.72,0.23-1.23,0.69-1.48,1.4
			c-0.29,0.83-0.33,1.69-0.05,2.53c0.4,1.25,1.47,1.93,2.85,1.84c0.39-0.03,0.78-0.09,1.17-0.13c0.02,0.03,0.03,0.06,0.05,0.09
			c-0.17,0.13-0.32,0.31-0.51,0.39c-1.61,0.72-3.57,0.16-4.38-1.59c-0.42-0.91-0.46-1.86-0.19-2.81c0.39-1.35,1.88-2.33,3.35-2.26
			c0.75,0.03,1.4,0.31,2.02,0.7c0.26,0.17,0.25,0.44,0.3,0.69C97.17,111.62,97.15,111.64,97.13,111.67z"/>
		<path class="st21" d="M64.62,101.05c0.05,0.19,0.14,0.38,0.15,0.58c0.03,0.74,0.01,1.48,0.07,2.22c0.04,0.5,0.28,0.75,0.78,0.76
			c1.2,0.02,2.4,0.03,3.59-0.02c0.6-0.02,0.89-0.35,0.92-0.96c0.05-0.96,0.04-1.92,0.06-2.88c0.01-0.48,0.02-0.97-0.01-1.45
			c-0.02-0.42,0.18-0.71,0.51-1.05c0.08,0.31,0.19,0.56,0.2,0.8c0.03,1.09,0.02,2.18,0.06,3.26c0.02,0.5,0.1,1,0.19,1.49
			c0.05,0.26-0.02,0.4-0.22,0.55c-0.71,0.54-1.52,0.8-2.4,0.83c-0.76,0.02-1.52-0.04-2.28-0.06c-0.35-0.01-0.7-0.02-1.04-0.02
			c-0.61,0-1.03-0.35-1.04-0.96c-0.01-0.88,0-1.76,0.04-2.63c0.01-0.16,0.18-0.32,0.28-0.48C64.52,101.04,64.57,101.04,64.62,101.05
			z"/>
		<path class="st21" d="M115.49,116.89c-0.17,0.05-0.34,0.13-0.51,0.13c-0.96,0-1.92-0.01-2.88-0.03c-0.59-0.01-0.83-0.26-0.83-0.85
			c0.01-1.73,0.02-3.45,0.04-5.18c0-0.42,0.21-0.63,0.63-0.63c1.03-0.02,2.05-0.02,3.08-0.02c0.14,0,0.28,0.07,0.42,0.1
			c0,0.04,0,0.09,0.01,0.13c-0.16,0.05-0.32,0.14-0.49,0.14c-0.61,0.02-1.23,0.01-1.84,0.01c-0.6,0-0.82,0.2-0.85,0.79
			c-0.02,0.25-0.03,0.49-0.02,0.74c0.03,0.47,0.26,0.67,0.73,0.66c0.47-0.01,0.93-0.04,1.4-0.04c0.13,0,0.26,0.07,0.39,0.11
			c0,0.04,0.01,0.08,0.01,0.12c-0.12,0.05-0.23,0.14-0.36,0.15c-0.43,0.03-0.86,0.04-1.29,0.06c-0.58,0.03-0.86,0.27-0.91,0.85
			c-0.04,0.53-0.07,1.06-0.05,1.59c0.02,0.49,0.23,0.72,0.72,0.79c0.56,0.07,1.13,0.07,1.7,0.12c0.3,0.03,0.6,0.09,0.9,0.14
			C115.49,116.81,115.49,116.85,115.49,116.89z"/>
		<path class="st21" d="M115.55,98.29c0.07,0.25,0.18,0.46,0.18,0.67c0,1.64-0.01,3.29-0.04,4.93c-0.02,0.87-0.38,1.23-1.25,1.25
			c-0.81,0.02-1.61,0.01-2.42,0c-0.15,0-0.3-0.07-0.46-0.11c0-0.03-0.01-0.06-0.01-0.09c0.11-0.08,0.22-0.2,0.34-0.24
			c0.42-0.12,0.6-0.42,0.6-0.82c0.01-1.21,0.02-2.42-0.02-3.62c-0.01-0.41,0.08-0.71,0.42-0.96c0.18,0.16,0.28,0.35,0.28,0.61
			c-0.01,1.08,0,2.16,0,3.24c0,0.23-0.02,0.46-0.04,0.68c-0.03,0.41,0.17,0.69,0.57,0.78c0.68,0.16,1.11-0.1,1.26-0.77
			c0.06-0.29,0.09-0.6,0.09-0.9c0.01-1.22,0.01-2.43-0.01-3.65C115.03,98.9,115.15,98.58,115.55,98.29z"/>
		<path class="st21" d="M75.84,110.41c0.56,0.08,0.86,0.38,1.05,0.93c0.52,1.45,1.11,2.88,1.68,4.32c0.06,0.16,0.19,0.29,0.3,0.44
			c0.28-0.15,0.49-0.33,0.61-0.62c0.59-1.5,1.19-2.99,1.78-4.48c0.05-0.13,0.08-0.27,0.17-0.37c0.07-0.08,0.2-0.12,0.31-0.17
			c0.02,0.1,0.07,0.23,0.04,0.31c-0.33,0.86-0.67,1.72-1.01,2.58c-0.39,0.98-0.78,1.95-1.17,2.93c-0.17,0.41-0.41,0.74-0.91,0.75
			c-0.45,0.01-0.73-0.16-0.91-0.61c-0.23-0.59-0.41-1.19-0.64-1.78c-0.42-1.07-0.84-2.14-1.29-3.2
			C75.69,111.07,75.65,110.75,75.84,110.41z"/>
		<path class="st21" d="M68.41,116.91c-0.14,0.04-0.27,0.12-0.41,0.12c-1.02-0.01-2.03-0.03-3.05-0.06c-0.49-0.01-0.79-0.3-0.81-0.8
			c-0.02-0.67,0-1.33-0.02-2c-0.03-0.99-0.07-1.97-0.1-2.96c0-0.15-0.04-0.31,0.01-0.43c0.06-0.14,0.18-0.32,0.31-0.36
			c0.13-0.04,0.36,0.04,0.44,0.15c0.12,0.15,0.19,0.38,0.2,0.57c0.02,1.39,0.03,2.78,0.03,4.17c0,0.25,0,0.49,0.01,0.74
			c0.02,0.43,0.16,0.58,0.59,0.58c0.63,0.01,1.26,0,1.89,0c0.16,0,0.33-0.01,0.49,0.02c0.13,0.02,0.26,0.08,0.39,0.12
			C68.41,116.81,68.41,116.86,68.41,116.91z"/>
		<path class="st21" d="M107.48,96.27c0.39,0,0.66,0.27,0.67,0.65c0,0.38-0.3,0.68-0.69,0.67c-0.37-0.01-0.66-0.3-0.65-0.67
			C106.82,96.52,107.09,96.26,107.48,96.27z"/>
		<path class="st21" d="M68.17,101.56c-0.44,0.13-0.82,0.13-1.1-0.1c-0.08-0.31-0.13-0.58-0.21-0.83c-0.17-0.49-0.04-0.75,0.47-0.82
			c0.31-0.04,0.64,0,0.95,0.03c0.05,0.01,0.11,0.16,0.12,0.25c0,0.03-0.14,0.12-0.2,0.11c-0.12-0.03-0.22-0.13-0.34-0.17
			c-0.12-0.04-0.33-0.11-0.36-0.06c-0.09,0.13-0.18,0.33-0.14,0.46C67.5,100.87,67.69,101.3,68.17,101.56z"/>
		<path class="st21" d="M76.4,107.61c-0.36,0-0.66-0.3-0.66-0.67c0-0.37,0.29-0.66,0.66-0.66c0.39,0,0.68,0.3,0.67,0.68
			C77.07,107.33,76.77,107.62,76.4,107.61z"/>
		<path class="st21" d="M106.8,98.94c-0.37,0-0.66-0.29-0.67-0.65c-0.01-0.38,0.3-0.69,0.67-0.68c0.36,0.01,0.66,0.31,0.66,0.67
			C107.46,98.64,107.17,98.94,106.8,98.94z"/>
		<path class="st21" d="M74.76,107.61c-0.37,0-0.65-0.29-0.66-0.67c0-0.38,0.29-0.66,0.67-0.65c0.38,0,0.66,0.29,0.66,0.66
			C75.43,107.33,75.13,107.61,74.76,107.61z"/>
		<path class="st21" d="M107.78,98.27c0-0.37,0.29-0.66,0.65-0.67c0.36-0.01,0.66,0.29,0.67,0.65c0.01,0.39-0.28,0.68-0.67,0.68
			C108.07,98.93,107.79,98.65,107.78,98.27z"/>
	</g>
</g>
<g class="st16">
	<g class="st20">
		<path class="st21" d="M101.11,62.49c-1.42-0.15-2.86-0.21-4.3-0.12l-0.54,0.03l-0.54,0.06c-0.36,0.04-0.72,0.08-1.08,0.14
			c-0.72,0.1-1.43,0.25-2.13,0.42l-1.05,0.28c-0.35,0.11-0.69,0.22-1.04,0.34c-0.35,0.11-0.68,0.26-1.02,0.39
			c-0.34,0.14-0.68,0.26-1.01,0.41c-2.66,1.21-5.12,2.88-7.22,4.94c-1.42,1.39-2.68,2.94-3.76,4.61c-0.25-1.07-0.47-2.15-0.64-3.24
			c-0.33-2-0.53-4.01-0.62-6.04c-0.09-2.03-0.05-4.07,0.09-6.12c0.07-1.02,0.18-2.04,0.31-3.07c0.13-1.02,0.29-2.04,0.46-3.07
			c-0.38,0.97-0.71,1.95-1,2.96c-0.3,1-0.54,2.02-0.75,3.04c-0.43,2.05-0.66,4.15-0.76,6.25c-0.09,2.1-0.01,4.22,0.23,6.32
			c0.24,2.1,0.64,4.19,1.19,6.23l0.75,2.78l1.36-2.57c1.25-2.37,2.87-4.56,4.76-6.47c1.88-1.92,4.08-3.52,6.46-4.79
			c0.3-0.15,0.61-0.29,0.91-0.44c0.31-0.14,0.61-0.3,0.92-0.42l0.94-0.38l0.96-0.34c0.65-0.21,1.3-0.41,1.96-0.57
			c0.33-0.09,0.66-0.16,1-0.23l0.5-0.11l0.51-0.09c2.71-0.48,5.51-0.53,8.31-0.23C103.93,62.96,102.53,62.67,101.11,62.49z"/>
		<path class="st21" d="M97.95,86.93c-0.75-0.55-1.46-1.13-2.13-1.76c-0.67-0.62-1.28-1.3-1.84-2c-0.56-0.71-1.08-1.44-1.52-2.22
			c-0.24-0.38-0.43-0.78-0.64-1.17c-0.1-0.2-0.19-0.41-0.28-0.61l-0.14-0.3l-0.12-0.31c-0.34-0.82-0.6-1.67-0.82-2.53
			c-0.21-0.86-0.37-1.73-0.46-2.61c-0.09-0.88-0.13-1.76-0.09-2.64l0.1-2.54l-1.99,1.61c-1.67,1.36-3.2,2.89-4.57,4.55
			c-1.36,1.67-2.55,3.47-3.54,5.37c-0.5,0.95-0.93,1.93-1.33,2.92c-0.39,0.99-0.72,2.01-1,3.03c-0.28,1.03-0.5,2.06-0.66,3.11
			c-0.08,0.52-0.15,1.05-0.2,1.57c-0.05,0.52-0.08,1.05-0.1,1.57c0.15-0.5,0.29-1.01,0.46-1.5c0.15-0.5,0.32-0.99,0.49-1.48
			c0.35-0.98,0.72-1.94,1.13-2.88c0.81-1.89,1.76-3.69,2.84-5.41c1.08-1.71,2.29-3.34,3.62-4.86c0.8-0.92,1.66-1.79,2.55-2.62
			c0.02,0.16,0.03,0.31,0.05,0.47c0.13,0.99,0.34,1.96,0.62,2.92c0.28,0.95,0.64,1.88,1.08,2.77l0.16,0.34l0.18,0.33
			c0.12,0.22,0.24,0.43,0.37,0.65c0.27,0.42,0.52,0.84,0.82,1.24c0.57,0.81,1.22,1.55,1.91,2.24c0.69,0.69,1.45,1.32,2.25,1.87
			c1.59,1.1,3.36,1.94,5.19,2.4c-0.41-0.23-0.82-0.46-1.22-0.72C98.71,87.46,98.33,87.2,97.95,86.93z"/>
	</g>
	<g class="st20">
		<path class="st21" d="M36.41,105.82c-0.96,0.19-1.74,0.21-4.46,0.21v-4.24c1.53,0,2.35,0.03,3.54,0.11v-0.4
			c-1.05,0.08-2.02,0.08-3.54,0.11v-4.23c2.01,0,3.37,0.07,4.19,0.21v-0.4h-4.67v9.03h4.93V105.82z"/>
		<path class="st21" d="M38.83,97.19h-0.48v9.03h4.67v-0.4c-0.96,0.19-1.74,0.21-4.19,0.21V97.19z"/>
		<rect x="42.93" y="103" class="st21" width="4.87" height="0.19"/>
		<path class="st21" d="M52.62,101.56v-0.13c1.68-1.76,2.85-2.97,3.84-4.24h-0.49c-0.96,1.26-1.86,2.42-3.54,4.19h-2.1v-4.19h-0.48
			v9.03h0.48v-4.66h2.15l3.62,4.66h0.55l-3.62-4.66H52.62z"/>
		<path class="st21" d="M63.2,105.82c-0.96,0.19-1.74,0.21-4.46,0.21v-4.24c1.53,0,2.35,0.03,3.54,0.11v-0.4
			c-1.05,0.08-2.02,0.08-3.54,0.11v-4.23c2.01,0,3.37,0.07,4.19,0.21v-0.4h-4.67v9.03h4.93V105.82z"/>
		<path class="st21" d="M71.62,100.72v4.89h-0.04l-6.28-8.7h-0.15v5.75c0,1.18-0.07,2.59-0.11,3.55h0.43
			c-0.04-0.96-0.12-2.35-0.12-3.54v-4.89h0.04l6.28,8.7h0.15v-5.76c0-1.18,0.08-2.58,0.12-3.54h-0.43
			C71.55,98.14,71.62,99.54,71.62,100.72z"/>
		<path class="st21" d="M79.93,104.08l0.89,2.14h0.48l-3.9-9.3h-0.15l-0.28,0.72c-1.12,2.77-2.22,5.81-3.34,8.58h0.45
			c0.01-0.12,0.24-0.9,0.67-2.14H79.93z M77.19,97.64h0.04l2.62,6.25h-5.04C75.34,102.35,76.15,100.15,77.19,97.64z"/>
		<path class="st21" d="M83.19,97.78h0.04l6.28,8.7h0.15v-5.76c0-1.18,0.08-2.58,0.12-3.54h-0.43c0.04,0.96,0.11,2.35,0.11,3.54
			v4.89h-0.04l-6.28-8.7h-0.15v5.75c0,1.18-0.07,2.59-0.11,3.55h0.43c-0.04-0.96-0.12-2.35-0.12-3.54V97.78z"/>
		<path class="st21" d="M94.56,106.22h0.48v-4.19c1.08-1.61,2.14-3.23,3.21-4.84h-0.48c-0.39,0.76-1.08,1.96-2.86,4.75h-0.04
			l-2.81-4.75h-0.48l2.98,5.01V106.22z"/>
		<path class="st21" d="M102.44,101.71c0,2.86,1.92,4.71,4.66,4.71c0.92,0,1.64-0.13,2.41-0.51v-0.25
			c-0.74,0.44-1.54,0.57-2.41,0.57c-2.58,0-4.15-1.9-4.15-4.52c0-2.49,1.58-4.54,4.2-4.54c1.29,0,2.01,0.36,2.35,0.68V97.4
			c-0.36-0.21-1.32-0.41-2.35-0.41C104.36,96.99,102.44,98.98,102.44,101.71z"/>
		<path class="st21" d="M116.35,105.82c-0.96,0.19-1.74,0.21-4.46,0.21v-4.24c1.53,0,2.35,0.03,3.54,0.11v-0.4
			c-1.05,0.08-2.02,0.08-3.54,0.11v-4.23c2.01,0,3.37,0.07,4.19,0.21v-0.4h-4.67v9.03h4.93V105.82z"/>
		<path class="st21" d="M118.5,97.78h0.04l6.28,8.7h0.15v-5.76c0-1.18,0.08-2.58,0.12-3.54h-0.43c0.04,0.96,0.11,2.35,0.11,3.54
			v4.89h-0.04l-6.28-8.7h-0.15v5.75c0,1.18-0.07,2.59-0.11,3.55h0.43c-0.04-0.96-0.12-2.35-0.12-3.54V97.78z"/>
		<path class="st21" d="M126.58,97.59c0.72-0.13,1.82-0.2,3.42-0.21v8.85h0.48v-8.85c1.58,0.03,2.69,0.09,3.39,0.21v-0.4h-7.29
			V97.59z"/>
		<path class="st21" d="M140.4,105.82c-0.96,0.19-1.74,0.21-4.46,0.21v-4.24c1.53,0,2.35,0.03,3.54,0.11v-0.4
			c-1.05,0.08-2.02,0.08-3.54,0.11v-4.23c2.01,0,3.37,0.07,4.19,0.21v-0.4h-4.67v9.03h4.93V105.82z"/>
		<path class="st21" d="M145.77,101.92h-0.31l-0.11-0.16c1.7-0.13,2.75-0.93,2.75-2.41c0-1.53-0.96-2.17-2.9-2.17h-2.87v9.03h0.48
			v-4.44h2.05h0.31l2.58,4.44h0.52L145.77,101.92z M144.85,101.59h-2.04v-4.22h2.29c2.01,0,2.5,0.89,2.5,2.04
			C147.61,100.67,146.98,101.59,144.85,101.59z"/>
	</g>
	<g class="st20">
		<path class="st21" d="M56.97,113.06H55v5.93h0.31v-2.39h1.38c1.38,0,2.2-0.62,2.2-1.83C58.89,113.76,58.16,113.06,56.97,113.06z
			 M56.65,116.47h-1.34v-3.29h1.5c1.41,0,1.75,0.86,1.75,1.61C58.56,115.65,58.13,116.47,56.65,116.47z"/>
		<path class="st21" d="M60.5,113.06h-0.31v5.93h3.07v-0.26c-0.63,0.12-1.14,0.14-2.75,0.14V113.06z"/>
		<path class="st21" d="M65.99,112.88l-0.18,0.47c-0.73,1.82-1.46,3.82-2.19,5.63h0.3c0.01-0.08,0.16-0.59,0.44-1.41h3.4l0.59,1.41
			h0.31l-2.56-6.11H65.99z M64.38,117.46c0.35-1.01,0.88-2.45,1.56-4.11h0.03l1.72,4.11H64.38z"/>
		<path class="st21" d="M71.43,115.89l-0.57-0.24c-0.79-0.35-1.25-0.67-1.25-1.42c0-0.89,0.81-1.18,1.59-1.18
			c0.7,0,1.11,0.27,1.34,0.49v-0.3c-0.24-0.13-0.79-0.31-1.33-0.31c-0.93,0-1.85,0.4-1.85,1.38c0,0.92,0.55,1.27,1.35,1.61
			l0.58,0.24c0.8,0.33,1.39,0.64,1.39,1.55c0,0.8-0.76,1.28-1.69,1.28c-0.95,0-1.47-0.31-1.74-0.55v0.3
			c0.24,0.12,0.98,0.38,1.72,0.38c1.05,0,1.97-0.55,1.97-1.57C72.94,116.56,72.24,116.23,71.43,115.89z"/>
		<path class="st21" d="M73.36,113.32c0.47-0.09,1.2-0.13,2.25-0.14v5.81h0.31v-5.81c1.04,0.02,1.76,0.06,2.23,0.14v-0.26h-4.79
			V113.32z"/>
		<rect x="79.19" y="113.06" class="st21" width="0.31" height="5.93"/>
		<path class="st21" d="M80.98,116.03c0,1.88,1.26,3.09,3.06,3.09c0.6,0,1.07-0.09,1.58-0.33v-0.17c-0.49,0.29-1.01,0.38-1.58,0.38
			c-1.69,0-2.73-1.25-2.73-2.97c0-1.63,1.04-2.98,2.76-2.98c0.85,0,1.32,0.24,1.55,0.45v-0.3c-0.24-0.14-0.86-0.27-1.55-0.27
			C82.24,112.93,80.98,114.24,80.98,116.03z"/>
		<path class="st21" d="M90.88,115.89l-0.57-0.24c-0.79-0.35-1.25-0.67-1.25-1.42c0-0.89,0.81-1.18,1.59-1.18
			c0.7,0,1.11,0.27,1.34,0.49v-0.3c-0.24-0.13-0.79-0.31-1.33-0.31c-0.93,0-1.85,0.4-1.85,1.38c0,0.92,0.55,1.27,1.35,1.61
			l0.58,0.24c0.8,0.33,1.39,0.64,1.39,1.55c0,0.8-0.76,1.28-1.69,1.28c-0.95,0-1.47-0.31-1.74-0.55v0.3
			c0.24,0.12,0.98,0.38,1.72,0.38c1.05,0,1.97-0.55,1.97-1.57C92.39,116.56,91.69,116.23,90.88,115.89z"/>
		<path class="st21" d="M97.9,115.38v1.23c0,1.52-0.66,2.35-1.93,2.35c-1.61,0-2.01-0.85-2.01-2.25v-3.66h-0.31v3.53
			c0,1.51,0.53,2.53,2.19,2.53c1.48,0,2.19-0.85,2.19-2.51v-1.23c0-0.78,0.05-1.69,0.08-2.32h-0.28
			C97.86,113.69,97.9,114.6,97.9,115.38z"/>
		<path class="st21" d="M101.91,116.17l-0.07-0.1c1.12-0.09,1.81-0.61,1.81-1.58c0-1-0.63-1.42-1.9-1.42h-1.89v5.93h0.31v-2.92h1.35
			h0.2l1.69,2.92h0.34l-1.64-2.82H101.91z M101.51,115.95h-1.34v-2.77h1.5c1.32,0,1.64,0.59,1.64,1.34
			C103.32,115.35,102.91,115.95,101.51,115.95z"/>
		<path class="st21" d="M109.39,118.52c-0.57,0.35-1.09,0.48-1.79,0.48c-1.51,0-2.59-1.28-2.59-3.01c0-1.6,1.04-2.94,2.76-2.94
			c0.85,0,1.32,0.24,1.55,0.45v-0.3c-0.24-0.14-0.86-0.27-1.55-0.27c-1.83,0-3.09,1.31-3.09,3.07c0,1.75,1.2,3.13,2.92,3.13
			c0.93,0,1.48-0.22,2.1-0.65v-2.45h-0.31V118.52z"/>
		<path class="st21" d="M111.51,116.08c1,0,1.55,0.02,2.32,0.07v-0.26c-0.69,0.05-1.33,0.05-2.32,0.07v-2.78
			c1.32,0,2.21,0.04,2.75,0.14v-0.26h-3.07v5.93h3.24v-0.26c-0.63,0.12-1.14,0.14-2.93,0.14V116.08z"/>
		<path class="st21" d="M117.76,116.17l-0.07-0.1c1.12-0.09,1.81-0.61,1.81-1.58c0-1-0.63-1.42-1.9-1.42h-1.89v5.93h0.31v-2.92h1.35
			h0.2l1.69,2.92h0.34l-1.64-2.82H117.76z M117.36,115.95h-1.34v-2.77h1.5c1.32,0,1.64,0.59,1.64,1.34
			C119.17,115.35,118.76,115.95,117.36,115.95z"/>
		<path class="st21" d="M122.56,116.17h-0.03l-1.84-3.12h-0.31l1.96,3.29v2.64h0.31v-2.75c0.71-1.06,1.41-2.12,2.11-3.18h-0.31
			C124.18,113.55,123.73,114.34,122.56,116.17z"/>
	</g>
</g>
</svg>
