<?xml version="1.0" encoding="utf-8"?>
<!-- Generator: Adobe Illustrator 25.2.1, SVG Export Plug-In . SVG Version: 6.00 Build 0)  -->
<svg version="1.1" id="Layer_1" xmlns="http://www.w3.org/2000/svg" xmlns:xlink="http://www.w3.org/1999/xlink" x="0px" y="0px"
	 viewBox="0 0 179.74 171.57" style="enable-background:new 0 0 179.74 171.57;" xml:space="preserve" >
<style type="text/css">
	.st0{filter:url(#Adobe_OpacityMaskFilter);}
	.st1{fill:#FFFFFF;}
	.st2{mask:url(#SVGID_1_);}
	.st3{filter:url(#Adobe_OpacityMaskFilter_1_);}
	.st4{mask:url(#SVGID_2_);}
	.st5{filter:url(#Adobe_OpacityMaskFilter_2_);}
	.st6{mask:url(#SVGID_3_);}
	.st7{filter:url(#Adobe_OpacityMaskFilter_3_);}
	.st8{mask:url(#SVGID_4_);}
	.st9{filter:url(#Adobe_OpacityMaskFilter_4_);}
	.st10{mask:url(#SVGID_5_);}
	.st11{filter:url(#Adobe_OpacityMaskFilter_5_);}
	.st12{mask:url(#SVGID_6_);}
	.st13{filter:url(#Adobe_OpacityMaskFilter_6_);}
	.st14{mask:url(#SVGID_7_);}
	.st15{fill:#E5E5E5;}
	.st16{display:none;}
	.st17{display:inline;fill:#231F20;}
	.st18{fill:none;stroke:#231F20;stroke-miterlimit:10;}
	.st19{display:inline;fill:#006B35;}
	.st20{display:inline;}
	.st21{fill:#231F20;}
	.st22{display:inline;fill:none;stroke:#231F20;stroke-miterlimit:10;}
	.st23{display:none;fill:#231F20;}
	.st24{fill-rule:evenodd;clip-rule:evenodd;fill:#231F20;}
	.st25{fill:#2D2B2B;}
	.st26{clip-path:url(#SVGID_9_);fill:#231F20;}
	.st27{clip-path:url(#SVGID_11_);fill:#231F20;}
	.st28{clip-path:url(#SVGID_13_);fill:#231F20;}
	.st29{clip-path:url(#SVGID_15_);fill:#231F20;}
	.st30{clip-path:url(#SVGID_17_);fill:#231F20;}
	.st31{clip-path:url(#SVGID_19_);fill:#231F20;}
	.st32{clip-path:url(#SVGID_21_);fill:#231F20;}
	.st33{clip-path:url(#SVGID_23_);fill:#231F20;}
	.st34{fill:#6EA6C8;}
	.st35{fill:#CECECE;}
	.st36{fill:url(#SVGID_24_);}
	.st37{fill:url(#SVGID_25_);}
	.st38{fill:url(#SVGID_26_);}
	.st39{fill:url(#SVGID_27_);}
	.st40{fill:#6EA9CB;stroke:#221F1F;stroke-width:0.25;stroke-miterlimit:5;}
	.st41{fill:#221F1F;}
	.st42{fill:#6EA9CB;stroke:#221F1F;stroke-miterlimit:5;}
	.st43{fill:#6EA9CB;}
	.st44{opacity:0.1;}
	.st45{fill:#CB8D38;}
	.st46{opacity:0.2;fill:#E0E0E0;}
	.st47{opacity:0.4;fill:#CB8D38;}
	.st48{fill:#26252B;}
	.st49{fill:#FFFFFF;stroke:#231F20;stroke-miterlimit:10;}
	.st50{display:inline;fill:none;stroke:#FFFFFF;stroke-width:7;stroke-miterlimit:10;}
	.st51{display:inline;fill:#FFFFFF;}
	.st52{display:inline;fill:none;stroke:#000000;stroke-miterlimit:10;}
	.st53{filter:url(#Adobe_OpacityMaskFilter_7_);}
	.st54{mask:url(#SVGID_28_);}
</style>
<g>
	<g>
		<path class="st21" d="M90.15,60.82c-13.66,0-24.79,11.13-24.79,24.79c0,5.58,1.86,10.73,4.96,14.87l-5.51,10.28l12.6-3.9l0,0l0,0
			c3.72,2.24,8.08,3.53,12.73,3.53c13.67,0,24.79-11.12,24.79-24.79C114.94,71.94,103.82,60.82,90.15,60.82z M90.15,109.31
			c-4.11,0-7.99-1.06-11.36-2.91c-0.21-0.11-0.41-0.24-0.61-0.36l-0.61-0.36l0,0l0,0l-1.36,0.42l0,0L67,108.95l4.06-7.55l0.55-1.04
			c-0.26-0.3-0.5-0.62-0.72-0.94c-2.8-3.9-4.45-8.67-4.45-13.81c0-13.07,10.64-23.71,23.71-23.71c13.08,0,23.71,10.64,23.71,23.71
			S103.23,109.31,90.15,109.31z"/>
	</g>
	<g>
		<path class="st21" d="M77.14,83.49v-7.58h2.05v5.93h2.92v1.65H77.14z"/>
		<path class="st21" d="M87.82,83.49h-4.5v-7.58h4.5v1.64h-2.45v1.19h2.27v1.64h-2.27v1.43h2.45V83.49z"/>
		<path class="st21" d="M92.49,83.49h-2.05v-5.91h-1.85v-1.68h5.75v1.68h-1.85V83.49z"/>
		<path class="st21" d="M97.07,75.92l0.08,0.11c-0.32,1.26-0.62,2.23-0.92,2.91h-1.44c0.23-1.1,0.4-2.1,0.51-3.02H97.07z"/>
		<path class="st21" d="M103.03,81.19c0,0.47-0.12,0.89-0.36,1.25c-0.24,0.37-0.58,0.65-1.03,0.85c-0.45,0.2-0.98,0.3-1.58,0.3
			c-0.5,0-0.93-0.04-1.27-0.11c-0.34-0.07-0.7-0.19-1.07-0.37v-1.82c0.39,0.2,0.8,0.36,1.22,0.47c0.42,0.11,0.81,0.17,1.16,0.17
			c0.3,0,0.53-0.05,0.67-0.16s0.21-0.24,0.21-0.41c0-0.1-0.03-0.19-0.08-0.27c-0.06-0.08-0.15-0.16-0.28-0.24
			c-0.13-0.08-0.46-0.24-1.01-0.49c-0.5-0.22-0.87-0.44-1.11-0.65s-0.43-0.45-0.55-0.73s-0.18-0.6-0.18-0.97
			c0-0.7,0.25-1.24,0.76-1.63c0.51-0.39,1.21-0.59,2.09-0.59c0.79,0,1.58,0.18,2.4,0.54l-0.63,1.58c-0.71-0.33-1.32-0.49-1.83-0.49
			c-0.27,0-0.46,0.05-0.58,0.14s-0.18,0.21-0.18,0.35c0,0.15,0.08,0.28,0.23,0.4c0.15,0.12,0.57,0.33,1.25,0.64
			c0.65,0.29,1.11,0.61,1.36,0.95C102.91,80.25,103.03,80.68,103.03,81.19z"/>
		<path class="st21" d="M80.28,96.23h-2.05v-5.91h-1.85v-1.67h5.75v1.67h-1.85V96.23z"/>
		<path class="st21" d="M87.87,96.23l-0.37-1.42h-2.46l-0.38,1.42h-2.25l2.47-7.61h2.73l2.5,7.61H87.87z M87.07,93.13l-0.33-1.25
			c-0.08-0.28-0.17-0.63-0.28-1.07c-0.11-0.44-0.18-0.75-0.22-0.94c-0.03,0.18-0.09,0.47-0.18,0.87s-0.29,1.2-0.61,2.39H87.07z"/>
		<path class="st21" d="M90.93,96.23v-7.58h2.05v5.93h2.92v1.65H90.93z"/>
		<path class="st21" d="M103.58,96.23h-2.31l-1.5-2.9l-0.61,0.36v2.54h-2.06v-7.58h2.06v3.29c0.1-0.2,0.31-0.53,0.63-0.97l1.59-2.32
			h2.24l-2.39,3.4L103.58,96.23z"/>
	</g>
</g>
</svg>
