<svg width="100%" height="44" viewBox="0 0 435 44" fill="none" xmlns="http://www.w3.org/2000/svg">
<path d="M22.1738 26.5416C22.1738 29.5573 21.0749 31.9114 18.8822 33.6041C16.6999 35.3021 13.7363 36.1458 9.98633 36.1458C5.92904 36.1458 2.80404 35.6198 0.611328 34.5625V30.7291C2.02799 31.3125 3.55924 31.7812 5.2155 32.125C6.86654 32.4739 8.50716 32.6458 10.1322 32.6458C12.7832 32.6458 14.7832 32.1458 16.1322 31.1458C17.4759 30.1354 18.153 28.7239 18.153 26.9166C18.153 25.7396 17.9082 24.7708 17.4238 24.0208C16.9499 23.2604 16.153 22.5573 15.028 21.9166C13.9134 21.2656 12.2207 20.5364 9.94466 19.7291C6.76237 18.5937 4.48633 17.2448 3.11133 15.6875C1.74675 14.1198 1.06966 12.0781 1.06966 9.56248C1.06966 6.92706 2.05404 4.82811 4.02799 3.27082C6.01237 1.70311 8.64258 0.916649 11.9238 0.916649C15.3249 0.916649 18.4551 1.54165 21.3197 2.79165L20.0697 6.24998C17.2363 5.0729 14.4863 4.47915 11.8197 4.47915C9.70508 4.47915 8.05404 4.93227 6.86133 5.83332C5.67904 6.73957 5.0905 7.99477 5.0905 9.60415C5.0905 10.7864 5.30404 11.7604 5.73633 12.5208C6.17904 13.2864 6.92383 13.9896 7.9655 14.625C9.00716 15.25 10.5957 15.9479 12.7363 16.7083C16.3301 17.9896 18.804 19.3646 20.153 20.8333C21.4967 22.3073 22.1738 24.2083 22.1738 26.5416Z" fill="#231F20"/>
<path d="M50.7344 35.6667L46.4635 24.7708H32.7344L28.526 35.6667H24.4844L38.026 1.24998H41.3802L54.8594 35.6667H50.7344ZM45.2344 21.1875L41.2344 10.5625C40.7188 9.21873 40.1927 7.5729 39.651 5.62498C39.3021 7.12498 38.8073 8.77082 38.1719 10.5625L34.151 21.1875H45.2344Z" fill="#231F20"/>
<path d="M86.9303 18.2083C86.9303 23.8646 85.3939 28.1875 82.3262 31.1875C79.2533 34.1771 74.8366 35.6666 69.0762 35.6666H59.5762V1.39581H70.0762C75.4095 1.39581 79.5449 2.87498 82.4928 5.83331C85.4512 8.78123 86.9303 12.9062 86.9303 18.2083ZM82.722 18.3541C82.722 13.8854 81.597 10.5156 79.347 8.24998C77.1074 5.98956 73.7741 4.85415 69.347 4.85415H63.5553V32.2291H68.4095C73.1595 32.2291 76.7272 31.0625 79.1178 28.7291C81.5189 26.3854 82.722 22.9271 82.722 18.3541Z" fill="#231F20"/>
<path d="M113.673 35.6666H94.5684V1.39581H113.673V4.93748H98.5475V15.9791H112.756V19.5H98.5475V32.1041H113.673V35.6666Z" fill="#231F20"/>
<path d="M151.007 18.4791C151.007 22.8698 150.122 26.5208 148.361 29.4375C146.596 32.3437 144.101 34.3073 140.882 35.3333L149.028 43.8333H143.236L136.57 36.0833L135.278 36.1458C130.236 36.1458 126.34 34.6041 123.59 31.5208C120.851 28.4271 119.486 24.0625 119.486 18.4375C119.486 12.8541 120.861 8.53123 123.611 5.45832C126.361 2.39061 130.262 0.854149 135.32 0.854149C140.247 0.854149 144.096 2.41665 146.861 5.54165C149.622 8.66665 151.007 12.9791 151.007 18.4791ZM123.695 18.4791C123.695 23.1198 124.679 26.6406 126.653 29.0416C128.637 31.4479 131.512 32.6458 135.278 32.6458C139.07 32.6458 141.929 31.4531 143.861 29.0625C145.804 26.6771 146.778 23.1458 146.778 18.4791C146.778 13.8698 145.809 10.375 143.882 7.99998C141.95 5.61457 139.096 4.41665 135.32 4.41665C131.528 4.41665 128.637 5.61977 126.653 8.02082C124.679 10.4271 123.695 13.9114 123.695 18.4791Z" fill="#231F20"/>
<path d="M185.247 23.4792H173.247L166.518 35.6667H163.768L183.038 1.24998H184.601L189.309 35.6667H186.851L185.247 23.4792ZM184.955 21.3125L184.038 14.5C183.549 10.7239 183.247 7.58332 183.122 5.08332C182.663 6.0729 182.163 7.08332 181.622 8.12498C181.08 9.16665 178.684 13.5625 174.434 21.3125H184.955Z" fill="#231F20"/>
<path d="M221.376 15.0625C221.376 19.0208 220.521 22.6354 218.813 25.8958C217.105 29.1458 214.756 31.5937 211.771 33.2291C208.782 34.8541 205.298 35.6666 201.313 35.6666H193.584L200.855 1.39581H208.001C212.402 1.39581 215.73 2.55206 217.98 4.85415C220.24 7.16144 221.376 10.5625 221.376 15.0625ZM201.271 33.5625C204.798 33.5625 207.876 32.8281 210.501 31.3541C213.136 29.8698 215.178 27.7187 216.626 24.8958C218.068 22.0625 218.792 18.8437 218.792 15.2291C218.792 7.45311 215.074 3.56248 207.646 3.56248H202.813L196.376 33.5625H201.271Z" fill="#231F20"/>
<path d="M233.527 32.2291C234.329 30.4948 235.303 28.5625 236.444 26.4375L249.84 1.39581H252.59L233.861 35.6666H231.798L227.527 1.39581H229.882L232.611 23.6666C233.027 27.0573 233.303 29.9114 233.444 32.2291H233.527Z" fill="#231F20"/>
<path d="M267.553 35.6666H250.512L257.783 1.39581H274.803L274.324 3.60415H259.699L256.949 16.5625H270.783L270.283 18.7708H256.512L253.345 33.4583H268.033L267.553 35.6666Z" fill="#231F20"/>
<path d="M280.999 20.8333L277.936 35.6666H275.52L282.79 1.39581H289.874C296.592 1.39581 299.957 4.20831 299.957 9.83331C299.957 12.6823 299.145 15.0521 297.52 16.9375C295.905 18.8281 293.712 20.0156 290.936 20.5C294.072 29.7396 295.801 34.7916 296.124 35.6666H293.52L288.561 20.8333H280.999ZM281.52 18.6666H287.415C290.665 18.6666 293.145 17.9271 294.853 16.4375C296.561 14.9375 297.415 12.7396 297.415 9.83331C297.415 5.65623 294.837 3.56248 289.686 3.56248H284.749L281.52 18.6666Z" fill="#231F20"/>
<path d="M310.227 35.6666H307.831L314.602 3.60415H304.477L304.956 1.39581H327.747L327.31 3.60415H316.997L310.227 35.6666Z" fill="#231F20"/>
<path d="M325.439 35.6666L332.71 1.39581H335.002L327.752 35.6666H325.439Z" fill="#231F20"/>
<path d="M355.831 26.2291C355.831 28.1875 355.315 29.9375 354.289 31.4791C353.273 33.0208 351.872 34.1875 350.081 34.9791C348.299 35.7552 346.206 36.1458 343.789 36.1458C342.414 36.1458 341.065 36.0052 339.747 35.7291C338.424 35.4687 337.086 35.0156 335.727 34.375V31.8125C338.268 33.2604 340.982 33.9791 343.872 33.9791C346.815 33.9791 349.128 33.3073 350.81 31.9583C352.487 30.5989 353.331 28.7812 353.331 26.5C353.331 25.5416 353.19 24.7291 352.914 24.0625C352.648 23.3854 352.237 22.7708 351.685 22.2291C351.128 21.6771 350.419 21.1406 349.56 20.625C348.695 20.1146 347.669 19.5208 346.477 18.8541C344.128 17.6771 342.487 16.3958 341.56 15.0208C340.628 13.6458 340.164 12.0364 340.164 10.1875C340.164 8.34373 340.622 6.72394 341.539 5.33332C342.466 3.93227 343.758 2.84894 345.414 2.08332C347.081 1.30727 348.935 0.916649 350.977 0.916649C352.518 0.916649 353.919 1.05727 355.185 1.33332C356.461 1.59894 357.779 2.06248 359.143 2.72915L358.393 4.93748C357.352 4.31248 356.164 3.8229 354.831 3.45832C353.497 3.09894 352.211 2.91665 350.977 2.91665C348.435 2.91665 346.404 3.56248 344.893 4.85415C343.393 6.14582 342.643 7.85415 342.643 9.97915C342.643 11.5937 343.023 12.9271 343.789 13.9791C344.549 15.0208 345.966 16.0573 348.039 17.0833C350.456 18.3229 352.128 19.3333 353.06 20.125C353.987 20.9166 354.685 21.8021 355.143 22.7708C355.602 23.7448 355.831 24.8958 355.831 26.2291Z" fill="#231F20"/>
<path d="M361.152 35.6666L368.423 1.39581H370.715L363.465 35.6666H361.152Z" fill="#231F20"/>
<path d="M395.626 35.6666H393.605L381.501 5.56248H381.313C380.964 7.89581 380.589 10.0364 380.188 11.9791C379.798 13.9114 378.131 21.8073 375.188 35.6666H372.959L380.23 1.39581H382.105L394.334 31.7291H394.521C394.881 28.9791 395.459 25.7291 396.251 21.9791L400.667 1.39581H402.855L395.626 35.6666Z" fill="#231F20"/>
<path d="M422.786 18.4375H432.307L428.786 34.4166C425.495 35.5729 422.328 36.1458 419.286 36.1458C415.271 36.1458 412.167 35.0104 409.974 32.7291C407.792 30.4375 406.703 27.1458 406.703 22.8541C406.703 18.7031 407.521 14.9271 409.161 11.5208C410.812 8.10415 413.026 5.48957 415.807 3.66665C418.599 1.83332 421.688 0.916649 425.078 0.916649C426.839 0.916649 428.422 1.06248 429.828 1.35415C431.245 1.64582 432.688 2.10415 434.161 2.72915L433.266 4.93748C431.542 4.21873 430.057 3.72915 428.807 3.47915C427.568 3.22915 426.266 3.10415 424.891 3.10415C422.016 3.10415 419.37 3.9479 416.953 5.62498C414.536 7.30727 412.625 9.66665 411.224 12.7083C409.833 15.7396 409.141 19.1198 409.141 22.8541C409.141 26.4271 410.036 29.1771 411.828 31.1041C413.62 33.0208 416.167 33.9791 419.474 33.9791C421.901 33.9791 424.318 33.6146 426.724 32.875L429.474 20.5416H422.37L422.786 18.4375Z" fill="#231F20"/>
</svg>
